# xmcd
#
# Track frame offsets: 
#        182
#        13510
#        25607
#        39045
#        49845
#        61557
#        73622
#        86990
#        100082
#        113045
#        124715
#        139232
#
# Disc length: 2035 seconds
#
# Revision: 0
# Processed by: cddbd v1.5.1PL2 Copyright (c) Steve Scherf et al.
# Submitted via: ExactAudioCopy v0.95b4
#
DISCID=9107f10c
DTITLE=Sons of the Pioneers - Wagons Wast
DYEAR=1996
DGENRE=Country
TTITLE0=Land Beyond the Sun
TTITLE1=Santa Fe, New Mexico
TTITLE2=Teardrops in My Heart
TTITLE3=Wagons West
TTITLE4=Cowboy Camp Meetin'
TTITLE5=A Hundred and Sixty Acres
TTITLE6=Down where the Rio Flows
TTITLE7=Will there be Sagebrush in Heaven
TTITLE8=Moonlight and Roses (Bring Mem'ries of You)
TTITLE9=Calico Apron and a Gingham Gown
TTITLE10=Waltz of the Roses
TTITLE11=Whiffenpoof Song
EXTD=
EXTT0=
EXTT1=
EXTT2=
EXTT3=
EXTT4=
EXTT5=
EXTT6=
EXTT7=
EXTT8=
EXTT9=
EXTT10=
EXTT11=
PLAYORDER=
